<svg width="276" height="37" viewBox="0 0 276 37" fill="none" xmlns="http://www.w3.org/2000/svg">
<path d="M15.3 -1.43051e-06C18.4333 -1.43051e-06 20.75 0.683332 22.25 2.05C23.7833 3.41667 24.55 5.2 24.55 7.4C24.55 9.26667 24.0333 10.7 23 11.7C21.9667 12.6667 20.4833 13.15 18.55 13.15C17.95 13.15 17.5667 13.1 17.4 13C17.2333 12.8667 17.15 12.6167 17.15 12.25C17.15 11.9167 17.1167 11.4833 17.05 10.95C17.0167 10.4167 16.9 9.9 16.7 9.4C16.5 8.9 16.1833 8.48333 15.75 8.15C15.3167 7.78333 14.7167 7.6 13.95 7.6C12.8833 7.6 11.9333 7.93333 11.1 8.6C10.2667 9.23333 9.85 10.0667 9.85 11.1C9.85 12 10.1833 12.7333 10.85 13.3C11.55 13.8667 12.4167 14.4 13.45 14.9C14.4833 15.3667 15.6 15.85 16.8 16.35C18.0333 16.85 19.1667 17.5167 20.2 18.35C21.2333 19.15 22.0833 20.1667 22.75 21.4C23.45 22.6 23.8 24.1333 23.8 26C23.8 27.4667 23.55 28.85 23.05 30.15C22.5833 31.4167 21.8667 32.5333 20.9 33.5C19.9667 34.4333 18.7667 35.1667 17.3 35.7C15.8667 36.2333 14.1833 36.5 12.25 36.5C10.5833 36.5 9.03333 36.3167 7.6 35.95C6.2 35.5833 4.96667 35.1333 3.9 34.6C2.86667 34.0333 2.05 33.4333 1.45 32.8C0.85 32.1333 0.55 31.5333 0.55 31C0.55 28.8 0.666667 27.2167 0.9 26.25C1.16667 25.2833 1.63333 24.8 2.3 24.8C2.76667 24.8 3.25 25 3.75 25.4C4.28333 25.8 4.88333 26.25 5.55 26.75C6.21667 27.25 6.98333 27.7 7.85 28.1C8.75 28.5 9.78333 28.7 10.95 28.7C11.4167 28.7 11.8667 28.6667 12.3 28.6C12.7667 28.5 13.1667 28.35 13.5 28.15C13.8667 27.95 14.15 27.6833 14.35 27.35C14.5833 27.0167 14.7 26.6167 14.7 26.15C14.7 25.3167 14.3833 24.65 13.75 24.15C13.1167 23.65 12.3167 23.2 11.35 22.8C10.3833 22.3667 9.33333 21.9333 8.2 21.5C7.1 21.0333 6.06667 20.4167 5.1 19.65C4.13333 18.85 3.33333 17.8333 2.7 16.6C2.06667 15.3667 1.75 13.7833 1.75 11.85C1.75 9.68333 2.15 7.85 2.95 6.35C3.78333 4.85 4.83333 3.63333 6.1 2.7C7.4 1.73333 8.85 1.05 10.45 0.649999C12.0833 0.216665 13.7 -1.43051e-06 15.3 -1.43051e-06ZM56.2008 19.7C56.1008 20.7 55.9508 21.8167 55.7508 23.05C55.5508 24.25 55.2341 25.4833 54.8008 26.75C54.4008 27.9833 53.8508 29.1833 53.1508 30.35C52.4508 31.5167 51.5508 32.5667 50.4508 33.5C49.3508 34.4 48.0174 35.1333 46.4508 35.7C44.9174 36.2333 43.0841 36.5 40.9508 36.5C38.7841 36.5 36.9341 36.2 35.4008 35.6C33.8674 34.9667 32.6174 34.1167 31.6508 33.05C30.6841 31.95 29.9841 30.6833 29.5508 29.25C29.1174 27.8167 28.9008 26.2833 28.9008 24.65C28.9008 23.9167 28.9341 22.9333 29.0008 21.7C29.0674 20.4333 29.1508 19.0667 29.2508 17.6C29.3841 16.1333 29.5174 14.6167 29.6508 13.05C29.7841 11.45 29.9008 9.93333 30.0008 8.5C30.1341 7.06666 30.2508 5.78333 30.3508 4.65C30.4508 3.48333 30.5174 2.6 30.5508 2C30.5841 1.36666 30.6674 0.966664 30.8008 0.799997C30.9341 0.599998 31.1341 0.499998 31.4008 0.499998H34.1508C36.1841 0.499998 37.5508 0.933332 38.2508 1.8C38.9508 2.66666 39.3008 3.95 39.3008 5.65C39.3008 5.75 39.2674 6.2 39.2008 7C39.1674 7.76666 39.1008 8.71667 39.0008 9.85C38.9341 10.9833 38.8508 12.2167 38.7508 13.55C38.6841 14.8833 38.6008 16.15 38.5008 17.35C38.4341 18.55 38.3674 19.6 38.3008 20.5C38.2674 21.4 38.2508 22 38.2508 22.3C38.2508 22.8667 38.2674 23.5167 38.3008 24.25C38.3674 24.9833 38.5008 25.6833 38.7008 26.35C38.9341 27.0167 39.2841 27.5833 39.7508 28.05C40.2508 28.4833 40.9508 28.7 41.8508 28.7C42.9841 28.7 43.9008 28.3167 44.6008 27.55C45.3341 26.7833 45.8841 25.8667 46.2508 24.8C46.6508 23.7333 46.9174 22.65 47.0508 21.55C47.2174 20.45 47.3341 19.55 47.4008 18.85C47.5341 17.15 47.6674 15.4 47.8008 13.6C47.9674 11.8 48.1008 10.1167 48.2008 8.55C48.3341 6.98333 48.4341 5.61667 48.5008 4.45C48.5674 3.28333 48.6008 2.48333 48.6008 2.05C48.6008 1.38333 48.6508 0.966664 48.7508 0.799997C48.8508 0.599998 49.0674 0.499998 49.4008 0.499998H52.1508C53.2841 0.499998 54.1675 0.599998 54.8008 0.799997C55.4674 0.999999 55.9674 1.26667 56.3008 1.6C56.6341 1.93333 56.8341 2.31667 56.9008 2.75C57.0008 3.18333 57.0508 3.63333 57.0508 4.1C57.0508 4.53333 57.0174 5.35 56.9508 6.55C56.9174 7.75 56.8674 9.11667 56.8008 10.65C56.7341 12.1833 56.6508 13.7667 56.5508 15.4C56.4508 17.0333 56.3341 18.4667 56.2008 19.7ZM66.7598 36C64.8598 36 63.5098 35.6333 62.7098 34.9C61.9431 34.1333 61.5598 33.0167 61.5598 31.55C61.5598 31.1167 61.5764 30.4333 61.6098 29.5C61.6764 28.5333 61.7598 27.4 61.8598 26.1C61.9598 24.8 62.0598 23.3833 62.1598 21.85C62.2931 20.3167 62.4264 18.75 62.5598 17.15C62.7264 15.1833 62.8598 13.5 62.9598 12.1C63.0931 10.6667 63.1931 9.45 63.2598 8.45C63.3264 7.41667 63.3764 6.56667 63.4098 5.9C63.4764 5.2 63.5098 4.6 63.5098 4.1C63.5431 3.56667 63.5598 3.08333 63.5598 2.65C63.5931 2.21667 63.6098 1.75 63.6098 1.25C63.6098 0.983332 63.6931 0.799999 63.8598 0.699998C64.0264 0.566665 64.1931 0.499998 64.3598 0.499998C65.2264 0.499998 66.1764 0.483332 67.2098 0.449999C68.2431 0.383331 69.2764 0.316664 70.3098 0.249998C71.3431 0.183333 72.3431 0.133332 73.3098 0.0999973C74.2764 0.0333315 75.1264 -1.43051e-06 75.8598 -1.43051e-06C77.9931 -1.43051e-06 79.8264 0.266665 81.3598 0.799997C82.8931 1.3 84.1264 2.05 85.0598 3.05C86.0264 4.01666 86.7264 5.2 87.1598 6.6C87.6264 8 87.8598 9.6 87.8598 11.4C87.8598 13.3667 87.5931 15.2667 87.0598 17.1C86.5598 18.9 85.7598 20.5 84.6598 21.9C83.5598 23.3 82.1431 24.4167 80.4098 25.25C78.6764 26.0833 76.6098 26.5 74.2098 26.5C72.7764 26.5 71.5598 26.35 70.5598 26.05L69.8598 35.25C69.8264 35.5167 69.7598 35.7167 69.6598 35.85C69.5598 35.95 69.3598 36 69.0598 36H66.7598ZM74.8598 7.5C74.4264 7.5 73.9431 7.53333 73.4098 7.6C72.8764 7.63333 72.3098 7.68333 71.7098 7.75C71.6431 9.15 71.5598 10.85 71.4598 12.85C71.3598 14.85 71.2264 16.95 71.0598 19.15C71.5598 19.2833 72.0431 19.3833 72.5098 19.45C73.0098 19.4833 73.4598 19.5 73.8598 19.5C75.0264 19.5 75.9598 19.2333 76.6598 18.7C77.3931 18.1333 77.9598 17.45 78.3598 16.65C78.7598 15.85 79.0264 15.0167 79.1598 14.15C79.2931 13.2833 79.3598 12.5333 79.3598 11.9C79.3598 10.4667 79.0264 9.38333 78.3598 8.65C77.7264 7.88333 76.5598 7.5 74.8598 7.5ZM96.1543 36C94.2876 36 92.9543 35.6333 92.1543 34.9C91.3543 34.1667 90.9543 33.1167 90.9543 31.75C90.9543 31.0833 91.0043 29.95 91.1043 28.35C91.2043 26.7167 91.3376 24.8667 91.5043 22.8C91.671 20.7333 91.8376 18.55 92.0043 16.25C92.171 13.95 92.3376 11.7833 92.5043 9.75C92.671 7.71667 92.8043 5.93333 92.9043 4.4C93.0043 2.86667 93.0543 1.81666 93.0543 1.25C93.0543 0.749998 93.321 0.499998 93.8543 0.499998H111.454C111.654 0.499998 111.838 0.549998 112.004 0.649999C112.171 0.749998 112.254 0.933331 112.254 1.2L112.054 4.15C111.988 5.15 111.704 5.96666 111.204 6.6C110.738 7.2 109.754 7.5 108.254 7.5H101.354L100.854 14.55H107.954C108.154 14.55 108.338 14.6 108.504 14.7C108.671 14.8 108.754 14.9833 108.754 15.25L108.554 18.2C108.488 19.2 108.204 20.0167 107.704 20.65C107.238 21.25 106.254 21.55 104.754 21.55H100.404L99.8543 29H110.854C111.054 29 111.238 29.0667 111.404 29.2C111.571 29.3 111.654 29.4667 111.654 29.7L111.454 32.65C111.388 33.65 111.104 34.4667 110.604 35.1C110.138 35.7 109.154 36 107.654 36H96.1543ZM121.203 36C119.303 36 117.953 35.6333 117.153 34.9C116.386 34.1333 116.003 33.0167 116.003 31.55C116.003 31.15 116.02 30.4833 116.053 29.55C116.12 28.5833 116.203 27.45 116.303 26.15C116.403 24.85 116.503 23.4333 116.603 21.9C116.736 20.3333 116.87 18.75 117.003 17.15C117.27 13.7833 117.453 11.05 117.553 8.95C117.686 6.85 117.786 5.2 117.853 4C117.953 2.5 118.053 1.55 118.153 1.15C118.253 0.716665 118.47 0.499998 118.803 0.499998C119.836 0.499998 120.886 0.483332 121.953 0.449999C123.053 0.383331 124.103 0.316664 125.103 0.249998C126.103 0.183333 127.036 0.133332 127.903 0.0999973C128.803 0.0333315 129.603 -1.43051e-06 130.303 -1.43051e-06C132.436 -1.43051e-06 134.27 0.266665 135.803 0.799997C137.336 1.33333 138.57 2.08333 139.503 3.05C140.47 4.01666 141.17 5.18333 141.603 6.55C142.07 7.91666 142.303 9.45 142.303 11.15C142.303 13.75 141.786 16.0667 140.753 18.1C139.72 20.1333 138.07 21.6833 135.803 22.75L140.003 28.75C140.77 29.8833 141.353 30.7667 141.753 31.4C142.153 32 142.353 32.45 142.353 32.75C142.353 32.9833 142.203 33.3167 141.903 33.75C141.636 34.15 141.22 34.5667 140.653 35C140.12 35.4 139.453 35.75 138.653 36.05C137.886 36.35 137.02 36.5 136.053 36.5C134.986 36.5 134.053 36.15 133.253 35.45C132.486 34.75 131.786 33.8333 131.153 32.7C130.553 31.5333 130.02 30.2 129.553 28.7C129.12 27.2 128.703 25.6333 128.303 24C127.103 23.9333 126.12 23.8167 125.353 23.65C125.253 25.1167 125.153 26.5167 125.053 27.85C124.953 29.1833 124.87 30.3833 124.803 31.45C124.736 32.4833 124.67 33.35 124.603 34.05C124.536 34.7167 124.503 35.1167 124.503 35.25C124.47 35.5167 124.403 35.7167 124.303 35.85C124.203 35.95 124.003 36 123.703 36H121.203ZM129.303 7.5C128.903 7.5 128.453 7.53333 127.953 7.6C127.453 7.63333 126.92 7.68333 126.353 7.75C126.286 8.91667 126.203 10.3167 126.103 11.95C126.036 13.55 125.936 15.2667 125.803 17.1C126.97 17.3667 127.986 17.5 128.853 17.5C129.886 17.5 130.72 17.3 131.353 16.9C132.02 16.5 132.536 16.0167 132.903 15.45C133.27 14.85 133.503 14.2167 133.603 13.55C133.736 12.8833 133.803 12.2833 133.803 11.75C133.803 10.3833 133.47 9.33333 132.803 8.6C132.136 7.86666 130.97 7.5 129.303 7.5ZM189.305 9.35C189.038 10.15 188.688 11.2 188.255 12.5C187.855 13.7667 187.405 15.1667 186.905 16.7C186.405 18.2333 185.888 19.8667 185.355 21.6C184.821 23.3 184.271 24.9667 183.705 26.6C183.171 28.2333 182.638 29.8 182.105 31.3C181.571 32.7667 181.088 34.05 180.655 35.15C180.521 35.4167 180.238 35.6333 179.805 35.8C179.405 35.9333 178.755 36 177.855 36C177.288 36 176.705 35.9667 176.105 35.9C175.505 35.8333 174.938 35.7 174.405 35.5C173.905 35.3 173.455 35.0333 173.055 34.7C172.688 34.3667 172.405 33.95 172.205 33.45C171.705 31.75 171.221 29.8667 170.755 27.8C170.321 25.7 169.888 23.5667 169.455 21.4C169.021 19.2333 168.588 17.1167 168.155 15.05C167.755 12.95 167.338 11.05 166.905 9.35C166.905 9.81666 166.888 10.6167 166.855 11.75C166.821 12.8833 166.788 14.2 166.755 15.7C166.721 17.2 166.671 18.8167 166.605 20.55C166.571 22.2833 166.538 23.9833 166.505 25.65C166.471 27.2833 166.438 28.8167 166.405 30.25C166.371 31.65 166.355 32.8 166.355 33.7C166.355 34.7 166.288 35.3333 166.155 35.6C166.055 35.8667 165.855 36 165.555 36H162.805C160.905 36 159.555 35.6333 158.755 34.9C157.988 34.1333 157.605 33.0167 157.605 31.55C157.605 31.15 157.621 30.4833 157.655 29.55C157.721 28.5833 157.805 27.45 157.905 26.15C158.005 24.85 158.105 23.4333 158.205 21.9C158.338 20.3333 158.471 18.75 158.605 17.15C158.771 14.9833 158.905 13.1833 159.005 11.75C159.138 10.2833 159.238 9.06666 159.305 8.1C159.371 7.13333 159.421 6.35 159.455 5.75C159.521 5.15 159.555 4.61667 159.555 4.15C159.588 3.68333 159.605 3.25 159.605 2.85C159.638 2.41666 159.655 1.88333 159.655 1.25C159.655 0.983332 159.755 0.799999 159.955 0.699998C160.155 0.566665 160.338 0.499998 160.505 0.499998H167.505C168.805 0.499998 169.871 0.716665 170.705 1.15C171.538 1.55 172.221 2.18333 172.755 3.05C173.288 3.91667 173.721 5.05 174.055 6.45C174.388 7.81667 174.688 9.45 174.955 11.35C175.255 13.25 175.571 15.45 175.905 17.95C176.271 20.4167 176.738 23.2 177.305 26.3C177.838 24.2333 178.288 22.5167 178.655 21.15C179.021 19.7833 179.321 18.65 179.555 17.75C179.821 16.8167 180.038 16.05 180.205 15.45C180.371 14.85 180.521 14.3 180.655 13.8C180.788 13.2667 180.938 12.7 181.105 12.1C181.271 11.5 181.471 10.75 181.705 9.85C181.938 8.95 182.221 7.83333 182.555 6.5C182.921 5.13333 183.371 3.41666 183.905 1.35C183.971 1.15 184.088 0.966664 184.255 0.799997C184.421 0.599998 184.721 0.499998 185.155 0.499998H192.955C194.021 0.499998 194.871 0.616665 195.505 0.85C196.171 1.05 196.688 1.35 197.055 1.75C197.421 2.15 197.671 2.65 197.805 3.25C197.938 3.81667 198.005 4.48333 198.005 5.25C198.005 6.01667 197.955 7.26667 197.855 9C197.788 10.7 197.671 12.6333 197.505 14.8C197.371 16.9333 197.221 19.15 197.055 21.45C196.921 23.75 196.771 25.8833 196.605 27.85C196.471 29.8167 196.355 31.4833 196.255 32.85C196.155 34.2167 196.088 35.0167 196.055 35.25C196.021 35.5167 195.955 35.7167 195.855 35.85C195.755 35.95 195.555 36 195.255 36H192.505C190.605 36 189.255 35.6333 188.455 34.9C187.688 34.1333 187.305 33.15 187.305 31.95C187.305 31.5833 187.338 30.9167 187.405 29.95C187.505 28.9833 187.621 27.85 187.755 26.55C187.888 25.25 188.038 23.8333 188.205 22.3C188.371 20.7333 188.521 19.1833 188.655 17.65C188.788 16.1167 188.905 14.6333 189.005 13.2C189.138 11.7333 189.238 10.45 189.305 9.35ZM218.765 0.499998C219.598 0.499998 220.282 0.666665 220.815 0.999998C221.382 1.3 221.848 1.71666 222.215 2.25C222.582 2.75 222.882 3.33333 223.115 4C223.348 4.66667 223.548 5.35 223.715 6.05C225.048 11.45 226.148 15.9 227.015 19.4C227.882 22.9 228.565 25.7333 229.065 27.9C229.565 30.0333 229.915 31.6167 230.115 32.65C230.315 33.6833 230.415 34.4 230.415 34.8C230.415 35.2667 230.298 35.5833 230.065 35.75C229.865 35.9167 229.532 36 229.065 36H226.515C225.082 36 223.932 35.8333 223.065 35.5C222.232 35.1333 221.582 34.6167 221.115 33.95C220.682 33.2833 220.365 32.4833 220.165 31.55C219.965 30.5833 219.798 29.5 219.665 28.3H210.965L209.315 35.2C209.148 35.7333 208.765 36 208.165 36H205.515C204.982 36 204.432 35.95 203.865 35.85C203.298 35.7167 202.782 35.5167 202.315 35.25C201.882 34.9833 201.515 34.65 201.215 34.25C200.915 33.8167 200.765 33.3 200.765 32.7C200.765 31.9667 200.998 30.7667 201.465 29.1C201.932 27.4333 202.515 25.55 203.215 23.45C203.948 21.3167 204.748 19.1 205.615 16.8C206.515 14.4667 207.382 12.2667 208.215 10.2C209.048 8.13333 209.798 6.31667 210.465 4.75C211.165 3.18333 211.698 2.08333 212.065 1.45C212.332 0.983331 212.565 0.716665 212.765 0.649999C212.998 0.549998 213.415 0.499998 214.015 0.499998H218.765ZM212.765 21.05H218.515L216.415 7.85L212.765 21.05ZM239.172 36C237.305 36 235.972 35.6333 235.172 34.9C234.372 34.1667 233.972 33.1167 233.972 31.75C233.972 31.0833 234.022 29.95 234.122 28.35C234.222 26.7167 234.355 24.8667 234.522 22.8C234.689 20.7333 234.855 18.55 235.022 16.25C235.189 13.95 235.355 11.7833 235.522 9.75C235.689 7.71667 235.822 5.93333 235.922 4.4C236.022 2.86667 236.072 1.81666 236.072 1.25C236.072 0.749998 236.339 0.499998 236.872 0.499998H239.622C241.489 0.499998 242.772 0.866665 243.472 1.6C244.205 2.3 244.572 3.35 244.572 4.75C244.572 4.91667 244.555 5.06667 244.522 5.2C244.522 5.33333 244.522 5.48333 244.522 5.65L242.872 29H251.872C252.072 29 252.255 29.0667 252.422 29.2C252.589 29.3 252.672 29.4667 252.672 29.7L252.472 32.65C252.405 33.65 252.122 34.4667 251.622 35.1C251.155 35.7 250.172 36 248.672 36H239.172ZM261.584 36C259.717 36 258.384 35.6333 257.584 34.9C256.784 34.1667 256.384 33.1167 256.384 31.75C256.384 31.0833 256.434 29.95 256.534 28.35C256.634 26.7167 256.767 24.8667 256.934 22.8C257.101 20.7333 257.267 18.55 257.434 16.25C257.601 13.95 257.767 11.7833 257.934 9.75C258.101 7.71667 258.234 5.93333 258.334 4.4C258.434 2.86667 258.484 1.81666 258.484 1.25C258.484 0.749998 258.751 0.499998 259.284 0.499998H262.034C263.901 0.499998 265.184 0.866665 265.884 1.6C266.617 2.3 266.984 3.35 266.984 4.75C266.984 4.91667 266.967 5.06667 266.934 5.2C266.934 5.33333 266.934 5.48333 266.934 5.65L265.284 29H274.284C274.484 29 274.667 29.0667 274.834 29.2C275.001 29.3 275.084 29.4667 275.084 29.7L274.884 32.65C274.817 33.65 274.534 34.4667 274.034 35.1C273.567 35.7 272.584 36 271.084 36H261.584Z" fill="black"/>
</svg>
